<svg width="18" height="17" viewBox="0 0 18 17" fill="none" xmlns="http://www.w3.org/2000/svg">
<path d="M1.56164e-05 16.8V-1.33514e-05H3.16802V16.8H1.56164e-05ZM6.42414 16.8V4.89599H9.40014V6.45599H9.83214C10.0241 6.03999 10.3841 5.64799 10.9121 5.27999C11.4401 4.89599 12.2401 4.70399 13.3121 4.70399C14.2401 4.70399 15.0481 4.91999 15.7361 5.35199C16.4401 5.76799 16.9841 6.35199 17.3681 7.10399C17.7521 7.83999 17.9441 8.70399 17.9441 9.69599V16.8H14.9201V9.93599C14.9201 9.03999 14.6961 8.36799 14.2481 7.91999C13.8161 7.47199 13.1921 7.24799 12.3761 7.24799C11.4481 7.24799 10.7281 7.55999 10.2161 8.18399C9.70414 8.79199 9.44814 9.64799 9.44814 10.752V16.8H6.42414Z" fill="black"/>
</svg>
