<svg width="100" height="22" viewBox="0 0 100 22" fill="none" xmlns="http://www.w3.org/2000/svg">
<path d="M1.56164e-05 16.8V-1.33514e-05H6.91202C7.96802 -1.33514e-05 8.89602 0.215987 9.69602 0.647987C10.512 1.06399 11.144 1.65599 11.592 2.42399C12.056 3.19199 12.288 4.10399 12.288 5.15999V5.49599C12.288 6.53599 12.048 7.44799 11.568 8.23199C11.104 8.99999 10.464 9.59999 9.64802 10.032C8.84802 10.448 7.93602 10.656 6.91202 10.656H3.16802V16.8H1.56164e-05ZM3.16802 7.77599H6.60002C7.35202 7.77599 7.96002 7.56799 8.42402 7.15199C8.88802 6.73599 9.12002 6.16799 9.12002 5.44799V5.20799C9.12002 4.48799 8.88802 3.91999 8.42402 3.50399C7.96002 3.08799 7.35202 2.87999 6.60002 2.87999H3.16802V7.77599ZM14.5804 16.8V4.89599H17.5564V6.23999H17.9884C18.1644 5.75999 18.4524 5.40799 18.8524 5.18399C19.2684 4.95999 19.7484 4.84799 20.2924 4.84799H21.7324V7.53599H20.2444C19.4764 7.53599 18.8444 7.74399 18.3484 8.15999C17.8524 8.55999 17.6044 9.18399 17.6044 10.032V16.8H14.5804ZM29.3381 17.136C28.1541 17.136 27.0901 16.896 26.1461 16.416C25.2021 15.936 24.4581 15.24 23.9141 14.328C23.3701 13.416 23.0981 12.32 23.0981 11.04V10.656C23.0981 9.37599 23.3701 8.27999 23.9141 7.36799C24.4581 6.45599 25.2021 5.75999 26.1461 5.27999C27.0901 4.79999 28.1541 4.55999 29.3381 4.55999C30.5221 4.55999 31.5861 4.79999 32.5301 5.27999C33.4741 5.75999 34.2181 6.45599 34.7621 7.36799C35.3061 8.27999 35.5781 9.37599 35.5781 10.656V11.04C35.5781 12.32 35.3061 13.416 34.7621 14.328C34.2181 15.24 33.4741 15.936 32.5301 16.416C31.5861 16.896 30.5221 17.136 29.3381 17.136ZM29.3381 14.448C30.2661 14.448 31.0341 14.152 31.6421 13.56C32.2501 12.952 32.5541 12.088 32.5541 10.968V10.728C32.5541 9.60799 32.2501 8.75199 31.6421 8.15999C31.0501 7.55199 30.2821 7.24799 29.3381 7.24799C28.4101 7.24799 27.6421 7.55199 27.0341 8.15999C26.4261 8.75199 26.1221 9.60799 26.1221 10.728V10.968C26.1221 12.088 26.4261 12.952 27.0341 13.56C27.6421 14.152 28.4101 14.448 29.3381 14.448ZM37.7935 10.896V10.512C37.7935 9.26399 38.0415 8.19999 38.5375 7.31999C39.0335 6.42399 39.6895 5.74399 40.5055 5.27999C41.3375 4.79999 42.2415 4.55999 43.2175 4.55999C44.3055 4.55999 45.1295 4.75199 45.6895 5.13599C46.2495 5.51999 46.6575 5.91999 46.9135 6.33599H47.3455V4.89599H50.3215V18.912C50.3215 19.728 50.0815 20.376 49.6015 20.856C49.1215 21.352 48.4815 21.6 47.6815 21.6H39.7135V18.96H46.6255C47.0735 18.96 47.2975 18.72 47.2975 18.24V15.144H46.8655C46.7055 15.4 46.4815 15.664 46.1935 15.936C45.9055 16.192 45.5215 16.408 45.0415 16.584C44.5615 16.76 43.9535 16.848 43.2175 16.848C42.2415 16.848 41.3375 16.616 40.5055 16.152C39.6895 15.672 39.0335 14.992 38.5375 14.112C38.0415 13.216 37.7935 12.144 37.7935 10.896ZM44.0815 14.208C45.0095 14.208 45.7855 13.912 46.4095 13.32C47.0335 12.728 47.3455 11.896 47.3455 10.824V10.584C47.3455 9.49599 47.0335 8.66399 46.4095 8.08799C45.8015 7.49599 45.0255 7.19999 44.0815 7.19999C43.1535 7.19999 42.3775 7.49599 41.7535 8.08799C41.1295 8.66399 40.8175 9.49599 40.8175 10.584V10.824C40.8175 11.896 41.1295 12.728 41.7535 13.32C42.3775 13.912 43.1535 14.208 44.0815 14.208ZM53.6741 16.8V4.89599H56.6501V6.23999H57.0821C57.2581 5.75999 57.5461 5.40799 57.9461 5.18399C58.3621 4.95999 58.8421 4.84799 59.3861 4.84799H60.8261V7.53599H59.3381C58.5701 7.53599 57.9381 7.74399 57.4421 8.15999C56.9461 8.55999 56.6981 9.18399 56.6981 10.032V16.8H53.6741ZM68.1919 17.136C67.0079 17.136 65.9599 16.888 65.0479 16.392C64.1519 15.88 63.4479 15.168 62.9359 14.256C62.4399 13.328 62.1919 12.24 62.1919 10.992V10.704C62.1919 9.45599 62.4399 8.37599 62.9359 7.46399C63.4319 6.53599 64.1279 5.82399 65.0239 5.32799C65.9199 4.81599 66.9599 4.55999 68.1439 4.55999C69.3119 4.55999 70.3279 4.82399 71.1919 5.35199C72.0559 5.86399 72.7279 6.58399 73.2079 7.51199C73.6879 8.42399 73.9279 9.48799 73.9279 10.704V11.736H65.2639C65.2959 12.552 65.5999 13.216 66.1759 13.728C66.7519 14.24 67.4559 14.496 68.2879 14.496C69.1359 14.496 69.7599 14.312 70.1599 13.944C70.5599 13.576 70.8639 13.168 71.0719 12.72L73.5439 14.016C73.3199 14.432 72.9919 14.888 72.5599 15.384C72.1439 15.864 71.5839 16.28 70.8799 16.632C70.1759 16.968 69.2799 17.136 68.1919 17.136ZM65.2879 9.47999H70.8559C70.7919 8.79199 70.5119 8.23999 70.0159 7.82399C69.5359 7.40799 68.9039 7.19999 68.1199 7.19999C67.3039 7.19999 66.6559 7.40799 66.1759 7.82399C65.6959 8.23999 65.3999 8.79199 65.2879 9.47999ZM81.5635 17.136C80.0115 17.136 78.7395 16.8 77.7475 16.128C76.7555 15.456 76.1555 14.496 75.9475 13.248L78.7315 12.528C78.8435 13.088 79.0275 13.528 79.2835 13.848C79.5555 14.168 79.8835 14.4 80.2675 14.544C80.6675 14.672 81.0995 14.736 81.5635 14.736C82.2675 14.736 82.7875 14.616 83.1235 14.376C83.4595 14.12 83.6275 13.808 83.6275 13.44C83.6275 13.072 83.4675 12.792 83.1475 12.6C82.8275 12.392 82.3155 12.224 81.6115 12.096L80.9395 11.976C80.1075 11.816 79.3475 11.6 78.6595 11.328C77.9715 11.04 77.4195 10.648 77.0035 10.152C76.5875 9.65599 76.3795 9.01599 76.3795 8.23199C76.3795 7.04799 76.8115 6.14399 77.6755 5.51999C78.5395 4.87999 79.6755 4.55999 81.0835 4.55999C82.4115 4.55999 83.5155 4.85599 84.3955 5.44799C85.2755 6.03999 85.8515 6.81599 86.1235 7.77599L83.3155 8.63999C83.1875 8.03199 82.9235 7.59999 82.5235 7.34399C82.1395 7.08799 81.6595 6.95999 81.0835 6.95999C80.5075 6.95999 80.0675 7.06399 79.7635 7.27199C79.4595 7.46399 79.3075 7.73599 79.3075 8.08799C79.3075 8.47199 79.4675 8.75999 79.7875 8.95199C80.1075 9.12799 80.5395 9.26399 81.0835 9.35999L81.7555 9.47999C82.6515 9.63999 83.4595 9.85599 84.1795 10.128C84.9155 10.384 85.4915 10.76 85.9075 11.256C86.3395 11.736 86.5555 12.392 86.5555 13.224C86.5555 14.472 86.0995 15.44 85.1875 16.128C84.2915 16.8 83.0835 17.136 81.5635 17.136ZM94.1494 17.136C92.5974 17.136 91.3254 16.8 90.3334 16.128C89.3414 15.456 88.7414 14.496 88.5334 13.248L91.3174 12.528C91.4294 13.088 91.6134 13.528 91.8694 13.848C92.1414 14.168 92.4694 14.4 92.8534 14.544C93.2534 14.672 93.6854 14.736 94.1494 14.736C94.8534 14.736 95.3734 14.616 95.7094 14.376C96.0454 14.12 96.2134 13.808 96.2134 13.44C96.2134 13.072 96.0534 12.792 95.7334 12.6C95.4134 12.392 94.9014 12.224 94.1974 12.096L93.5254 11.976C92.6934 11.816 91.9334 11.6 91.2454 11.328C90.5574 11.04 90.0054 10.648 89.5894 10.152C89.1734 9.65599 88.9654 9.01599 88.9654 8.23199C88.9654 7.04799 89.3974 6.14399 90.2614 5.51999C91.1254 4.87999 92.2614 4.55999 93.6694 4.55999C94.9974 4.55999 96.1014 4.85599 96.9814 5.44799C97.8614 6.03999 98.4374 6.81599 98.7094 7.77599L95.9014 8.63999C95.7734 8.03199 95.5094 7.59999 95.1094 7.34399C94.7254 7.08799 94.2454 6.95999 93.6694 6.95999C93.0934 6.95999 92.6534 7.06399 92.3494 7.27199C92.0454 7.46399 91.8934 7.73599 91.8934 8.08799C91.8934 8.47199 92.0534 8.75999 92.3734 8.95199C92.6934 9.12799 93.1254 9.26399 93.6694 9.35999L94.3414 9.47999C95.2374 9.63999 96.0454 9.85599 96.7654 10.128C97.5014 10.384 98.0774 10.76 98.4934 11.256C98.9254 11.736 99.1414 12.392 99.1414 13.224C99.1414 14.472 98.6854 15.44 97.7734 16.128C96.8774 16.8 95.6694 17.136 94.1494 17.136Z" fill="black"/>
</svg>
