<svg width="59" height="18" viewBox="0 0 59 18" fill="none" xmlns="http://www.w3.org/2000/svg">
<path d="M2.20803 16.8L2.93255e-05 -1.33514e-05H3.14403L4.77603 14.592H5.20803L7.32003 -1.33514e-05H12.792L14.904 14.592H15.336L16.968 -1.33514e-05H20.112L17.904 16.8H12.432L10.272 1.87199H9.84003L7.68003 16.8H2.20803ZM28.0459 17.136C26.8619 17.136 25.7979 16.896 24.8539 16.416C23.9099 15.936 23.1659 15.24 22.6219 14.328C22.0779 13.416 21.8059 12.32 21.8059 11.04V10.656C21.8059 9.37599 22.0779 8.27999 22.6219 7.36799C23.1659 6.45599 23.9099 5.75999 24.8539 5.27999C25.7979 4.79999 26.8619 4.55999 28.0459 4.55999C29.2299 4.55999 30.2939 4.79999 31.2379 5.27999C32.1819 5.75999 32.9259 6.45599 33.4699 7.36799C34.0139 8.27999 34.2859 9.37599 34.2859 10.656V11.04C34.2859 12.32 34.0139 13.416 33.4699 14.328C32.9259 15.24 32.1819 15.936 31.2379 16.416C30.2939 16.896 29.2299 17.136 28.0459 17.136ZM28.0459 14.448C28.9739 14.448 29.7419 14.152 30.3499 13.56C30.9579 12.952 31.2619 12.088 31.2619 10.968V10.728C31.2619 9.60799 30.9579 8.75199 30.3499 8.15999C29.7579 7.55199 28.9899 7.24799 28.0459 7.24799C27.1179 7.24799 26.3499 7.55199 25.7419 8.15999C25.1339 8.75199 24.8299 9.60799 24.8299 10.728V10.968C24.8299 12.088 25.1339 12.952 25.7419 13.56C26.3499 14.152 27.1179 14.448 28.0459 14.448ZM37.0772 16.8V4.89599H40.0532V6.23999H40.4852C40.6612 5.75999 40.9492 5.40799 41.3492 5.18399C41.7652 4.95999 42.2452 4.84799 42.7892 4.84799H44.2292V7.53599H42.7412C41.9732 7.53599 41.3412 7.74399 40.8452 8.15999C40.3492 8.55999 40.1012 9.18399 40.1012 10.032V16.8H37.0772ZM46.5928 16.8V-1.33514e-05H49.6168V9.28799H50.0488L53.9848 4.89599H57.9208L52.4248 10.656L58.1128 16.8H54.2248L50.0488 12.072H49.6168V16.8H46.5928Z" fill="black"/>
</svg>
